# xmcd CD database file
# Copyright (C) 1997 Ti Kan
# 
# Track frame offsets:
#     150
#     13045
#     35650
#     54193
#     78390
#     87903
#     116180
#     132138
#     155280
# 
# Disc length: 2371 seconds
# 
# Revision: 1
# Processed by: cddbd v1.4b41PL1 Copyright (c) Steve Scherf et al.
# Submitted via: DiscPlay 4.0.4
# 
DISCID=68094109
DTITLE=Terry Allen and the Panhandle Mystery Band - Bloodlines
DYEAR=1900
DGENRE=
TTITLE0=Bloodlines
TTITLE1=Gimme a Ride to Heaven, Boy
TTITLE2=Cantina Carlotta
TTITLE3=Ourland
TTITLE4=Oh, Hally Lou
TTITLE5=Oh, What a Dangerous Life
TTITLE6=Manhattan Bluebird
TTITLE7=There Oughta Be a Law Against Sunny Southern California
TTITLE8=Bloodlines (II)
EXTD=
EXTT0=
EXTT1=
EXTT2=
EXTT3=
EXTT4=
EXTT5=
EXTT6=
EXTT7=
EXTT8=
PLAYORDER=
